<mxfile host="app.diagrams.net" agent="Mozilla/5.0 (Windows NT 10.0; Win64; x64) AppleWebKit/537.36 (KHTML, like Gecko) Chrome/133.0.0.0 Safari/537.36 Edg/133.0.0.0" version="26.0.16">
  <diagram id="C5RBs43oDa-KdzZeNtuy" name="Page-1">
    <mxGraphModel dx="936" dy="108" grid="1" gridSize="10" guides="1" tooltips="1" connect="1" arrows="1" fold="1" page="1" pageScale="1" pageWidth="827" pageHeight="1169" math="0" shadow="0">
      <root>
        <mxCell id="WIyWlLk6GJQsqaUBKTNV-0" />
        <mxCell id="WIyWlLk6GJQsqaUBKTNV-1" parent="WIyWlLk6GJQsqaUBKTNV-0" />
        <mxCell id="WIyWlLk6GJQsqaUBKTNV-2" value="" style="rounded=0;html=1;jettySize=auto;orthogonalLoop=1;fontSize=11;endArrow=block;endFill=0;endSize=8;strokeWidth=1;shadow=0;labelBackgroundColor=none;edgeStyle=orthogonalEdgeStyle;" parent="WIyWlLk6GJQsqaUBKTNV-1" edge="1">
          <mxGeometry relative="1" as="geometry">
            <mxPoint x="220" y="120" as="sourcePoint" />
            <mxPoint x="220" y="170" as="targetPoint" />
          </mxGeometry>
        </mxCell>
        <mxCell id="WIyWlLk6GJQsqaUBKTNV-8" value="No" style="rounded=0;html=1;jettySize=auto;orthogonalLoop=1;fontSize=11;endArrow=block;endFill=0;endSize=8;strokeWidth=1;shadow=0;labelBackgroundColor=none;edgeStyle=orthogonalEdgeStyle;exitX=0;exitY=0.5;exitDx=0;exitDy=0;entryX=0.5;entryY=0;entryDx=0;entryDy=0;" parent="WIyWlLk6GJQsqaUBKTNV-1" source="WIyWlLk6GJQsqaUBKTNV-10" target="L3R0zQ536273g6mOuvDP-2" edge="1">
          <mxGeometry x="0.3333" y="20" relative="1" as="geometry">
            <mxPoint as="offset" />
            <mxPoint x="9.941176470588061" y="390" as="targetPoint" />
            <Array as="points">
              <mxPoint x="-30" y="355" />
            </Array>
          </mxGeometry>
        </mxCell>
        <mxCell id="WIyWlLk6GJQsqaUBKTNV-9" value="Yes" style="edgeStyle=orthogonalEdgeStyle;rounded=0;html=1;jettySize=auto;orthogonalLoop=1;fontSize=11;endArrow=block;endFill=0;endSize=8;strokeWidth=1;shadow=0;labelBackgroundColor=none;entryX=0.5;entryY=0;entryDx=0;entryDy=0;" parent="WIyWlLk6GJQsqaUBKTNV-1" source="WIyWlLk6GJQsqaUBKTNV-10" target="L3R0zQ536273g6mOuvDP-18" edge="1">
          <mxGeometry y="10" relative="1" as="geometry">
            <mxPoint as="offset" />
            <mxPoint x="450" y="460" as="targetPoint" />
            <Array as="points">
              <mxPoint x="540" y="355" />
            </Array>
          </mxGeometry>
        </mxCell>
        <mxCell id="WIyWlLk6GJQsqaUBKTNV-10" value="Is there a parameter dictionary?" style="rhombus;whiteSpace=wrap;html=1;shadow=0;fontFamily=Helvetica;fontSize=12;align=center;strokeWidth=1;spacing=6;spacingTop=-4;" parent="WIyWlLk6GJQsqaUBKTNV-1" vertex="1">
          <mxGeometry x="135" y="280" width="170" height="150" as="geometry" />
        </mxCell>
        <mxCell id="L3R0zQ536273g6mOuvDP-0" value="START" style="ellipse;whiteSpace=wrap;html=1;" vertex="1" parent="WIyWlLk6GJQsqaUBKTNV-1">
          <mxGeometry x="160" y="70" width="120" height="50" as="geometry" />
        </mxCell>
        <mxCell id="L3R0zQ536273g6mOuvDP-1" value="" style="endArrow=classic;html=1;rounded=0;exitX=0.5;exitY=1;exitDx=0;exitDy=0;entryX=0.5;entryY=0;entryDx=0;entryDy=0;" edge="1" parent="WIyWlLk6GJQsqaUBKTNV-1" target="WIyWlLk6GJQsqaUBKTNV-10">
          <mxGeometry width="50" height="50" relative="1" as="geometry">
            <mxPoint x="219.99999999999977" y="210" as="sourcePoint" />
            <mxPoint x="310" y="250" as="targetPoint" />
          </mxGeometry>
        </mxCell>
        <mxCell id="L3R0zQ536273g6mOuvDP-2" value="Are rows going to be reutrned?" style="rhombus;whiteSpace=wrap;html=1;" vertex="1" parent="WIyWlLk6GJQsqaUBKTNV-1">
          <mxGeometry x="-110" y="390" width="160" height="110" as="geometry" />
        </mxCell>
        <mxCell id="L3R0zQ536273g6mOuvDP-3" value="" style="endArrow=classic;html=1;rounded=0;exitX=1;exitY=0.5;exitDx=0;exitDy=0;entryX=0.5;entryY=0;entryDx=0;entryDy=0;" edge="1" parent="WIyWlLk6GJQsqaUBKTNV-1" source="L3R0zQ536273g6mOuvDP-2" target="L3R0zQ536273g6mOuvDP-5">
          <mxGeometry width="50" height="50" relative="1" as="geometry">
            <mxPoint x="170" y="430" as="sourcePoint" />
            <mxPoint x="79.09090909090901" y="510" as="targetPoint" />
            <Array as="points">
              <mxPoint x="120" y="445" />
            </Array>
          </mxGeometry>
        </mxCell>
        <mxCell id="L3R0zQ536273g6mOuvDP-5" value="Execute raw SQL query and commit to database" style="rounded=0;whiteSpace=wrap;html=1;" vertex="1" parent="WIyWlLk6GJQsqaUBKTNV-1">
          <mxGeometry x="60" y="510" width="120" height="60" as="geometry" />
        </mxCell>
        <mxCell id="L3R0zQ536273g6mOuvDP-6" value="Create SQLAlchemy Engine with connection string" style="rounded=0;whiteSpace=wrap;html=1;" vertex="1" parent="WIyWlLk6GJQsqaUBKTNV-1">
          <mxGeometry x="150" y="170" width="120" height="60" as="geometry" />
        </mxCell>
        <mxCell id="L3R0zQ536273g6mOuvDP-8" value="Execute raw SQL query and commit to database" style="rounded=0;whiteSpace=wrap;html=1;" vertex="1" parent="WIyWlLk6GJQsqaUBKTNV-1">
          <mxGeometry x="-200" y="510" width="120" height="60" as="geometry" />
        </mxCell>
        <mxCell id="L3R0zQ536273g6mOuvDP-9" value="" style="endArrow=classic;html=1;rounded=0;entryX=0.5;entryY=0;entryDx=0;entryDy=0;exitX=0;exitY=0.5;exitDx=0;exitDy=0;" edge="1" parent="WIyWlLk6GJQsqaUBKTNV-1" source="L3R0zQ536273g6mOuvDP-2" target="L3R0zQ536273g6mOuvDP-8">
          <mxGeometry width="50" height="50" relative="1" as="geometry">
            <mxPoint x="-160" y="440" as="sourcePoint" />
            <mxPoint x="80" y="490" as="targetPoint" />
            <Array as="points">
              <mxPoint x="-140" y="445" />
            </Array>
          </mxGeometry>
        </mxCell>
        <mxCell id="L3R0zQ536273g6mOuvDP-10" value="Return rows" style="rounded=0;whiteSpace=wrap;html=1;" vertex="1" parent="WIyWlLk6GJQsqaUBKTNV-1">
          <mxGeometry x="-200" y="620" width="120" height="60" as="geometry" />
        </mxCell>
        <mxCell id="L3R0zQ536273g6mOuvDP-11" value="" style="endArrow=classic;html=1;rounded=0;exitX=0.5;exitY=1;exitDx=0;exitDy=0;entryX=0.5;entryY=0;entryDx=0;entryDy=0;" edge="1" parent="WIyWlLk6GJQsqaUBKTNV-1" source="L3R0zQ536273g6mOuvDP-8" target="L3R0zQ536273g6mOuvDP-10">
          <mxGeometry width="50" height="50" relative="1" as="geometry">
            <mxPoint x="30" y="540" as="sourcePoint" />
            <mxPoint x="80" y="490" as="targetPoint" />
          </mxGeometry>
        </mxCell>
        <mxCell id="L3R0zQ536273g6mOuvDP-15" value="END" style="ellipse;whiteSpace=wrap;html=1;" vertex="1" parent="WIyWlLk6GJQsqaUBKTNV-1">
          <mxGeometry x="160" y="780" width="120" height="80" as="geometry" />
        </mxCell>
        <mxCell id="L3R0zQ536273g6mOuvDP-16" value="" style="endArrow=classic;html=1;rounded=0;exitX=0.5;exitY=1;exitDx=0;exitDy=0;entryX=0.5;entryY=0;entryDx=0;entryDy=0;" edge="1" parent="WIyWlLk6GJQsqaUBKTNV-1" source="L3R0zQ536273g6mOuvDP-10" target="L3R0zQ536273g6mOuvDP-15">
          <mxGeometry width="50" height="50" relative="1" as="geometry">
            <mxPoint x="-20" y="750" as="sourcePoint" />
            <mxPoint x="30" y="700" as="targetPoint" />
            <Array as="points">
              <mxPoint x="-140" y="740" />
              <mxPoint x="220" y="740" />
            </Array>
          </mxGeometry>
        </mxCell>
        <mxCell id="L3R0zQ536273g6mOuvDP-17" value="" style="endArrow=classic;html=1;rounded=0;exitX=0.5;exitY=1;exitDx=0;exitDy=0;entryX=0.5;entryY=0;entryDx=0;entryDy=0;" edge="1" parent="WIyWlLk6GJQsqaUBKTNV-1" source="L3R0zQ536273g6mOuvDP-5" target="L3R0zQ536273g6mOuvDP-15">
          <mxGeometry width="50" height="50" relative="1" as="geometry">
            <mxPoint x="-20" y="750" as="sourcePoint" />
            <mxPoint x="30" y="700" as="targetPoint" />
            <Array as="points">
              <mxPoint x="120" y="680" />
              <mxPoint x="220" y="680" />
            </Array>
          </mxGeometry>
        </mxCell>
        <mxCell id="L3R0zQ536273g6mOuvDP-18" value="Are rows going to be reutrned?" style="rhombus;whiteSpace=wrap;html=1;" vertex="1" parent="WIyWlLk6GJQsqaUBKTNV-1">
          <mxGeometry x="460" y="380" width="160" height="110" as="geometry" />
        </mxCell>
        <mxCell id="L3R0zQ536273g6mOuvDP-19" value="" style="endArrow=classic;html=1;rounded=0;exitX=1;exitY=0.5;exitDx=0;exitDy=0;entryX=0.5;entryY=0;entryDx=0;entryDy=0;" edge="1" parent="WIyWlLk6GJQsqaUBKTNV-1" source="L3R0zQ536273g6mOuvDP-18" target="L3R0zQ536273g6mOuvDP-20">
          <mxGeometry width="50" height="50" relative="1" as="geometry">
            <mxPoint x="740" y="470" as="sourcePoint" />
            <mxPoint x="649.090909090909" y="550" as="targetPoint" />
            <Array as="points">
              <mxPoint x="690" y="435" />
              <mxPoint x="690" y="485" />
            </Array>
          </mxGeometry>
        </mxCell>
        <mxCell id="L3R0zQ536273g6mOuvDP-20" value="Execute raw SQL query with parameter dictionary and commit to database" style="rounded=0;whiteSpace=wrap;html=1;" vertex="1" parent="WIyWlLk6GJQsqaUBKTNV-1">
          <mxGeometry x="630" y="490" width="120" height="60" as="geometry" />
        </mxCell>
        <mxCell id="L3R0zQ536273g6mOuvDP-21" value="Execute raw SQL query with parameter and commit to database" style="rounded=0;whiteSpace=wrap;html=1;" vertex="1" parent="WIyWlLk6GJQsqaUBKTNV-1">
          <mxGeometry x="370" y="490" width="120" height="60" as="geometry" />
        </mxCell>
        <mxCell id="L3R0zQ536273g6mOuvDP-22" value="" style="endArrow=classic;html=1;rounded=0;entryX=0.5;entryY=0;entryDx=0;entryDy=0;exitX=0;exitY=0.5;exitDx=0;exitDy=0;" edge="1" parent="WIyWlLk6GJQsqaUBKTNV-1" source="L3R0zQ536273g6mOuvDP-18" target="L3R0zQ536273g6mOuvDP-21">
          <mxGeometry width="50" height="50" relative="1" as="geometry">
            <mxPoint x="410" y="480" as="sourcePoint" />
            <mxPoint x="650" y="530" as="targetPoint" />
            <Array as="points">
              <mxPoint x="430" y="435" />
              <mxPoint x="430" y="485" />
            </Array>
          </mxGeometry>
        </mxCell>
        <mxCell id="L3R0zQ536273g6mOuvDP-23" value="Return rows" style="rounded=0;whiteSpace=wrap;html=1;" vertex="1" parent="WIyWlLk6GJQsqaUBKTNV-1">
          <mxGeometry x="370" y="590" width="120" height="60" as="geometry" />
        </mxCell>
        <mxCell id="L3R0zQ536273g6mOuvDP-24" value="" style="endArrow=classic;html=1;rounded=0;exitX=0.5;exitY=1;exitDx=0;exitDy=0;entryX=0.5;entryY=0;entryDx=0;entryDy=0;" edge="1" parent="WIyWlLk6GJQsqaUBKTNV-1" source="L3R0zQ536273g6mOuvDP-21" target="L3R0zQ536273g6mOuvDP-23">
          <mxGeometry width="50" height="50" relative="1" as="geometry">
            <mxPoint x="600" y="540" as="sourcePoint" />
            <mxPoint x="650" y="490" as="targetPoint" />
          </mxGeometry>
        </mxCell>
        <mxCell id="L3R0zQ536273g6mOuvDP-25" value="" style="endArrow=classic;html=1;rounded=0;exitX=0.5;exitY=1;exitDx=0;exitDy=0;entryX=0.5;entryY=0;entryDx=0;entryDy=0;" edge="1" parent="WIyWlLk6GJQsqaUBKTNV-1" source="L3R0zQ536273g6mOuvDP-20" target="L3R0zQ536273g6mOuvDP-15">
          <mxGeometry width="50" height="50" relative="1" as="geometry">
            <mxPoint x="650" y="630" as="sourcePoint" />
            <mxPoint x="220" y="740" as="targetPoint" />
            <Array as="points">
              <mxPoint x="690" y="740" />
              <mxPoint x="220" y="740" />
            </Array>
          </mxGeometry>
        </mxCell>
        <mxCell id="L3R0zQ536273g6mOuvDP-26" value="" style="endArrow=classic;html=1;rounded=0;exitX=0.5;exitY=1;exitDx=0;exitDy=0;entryX=0.5;entryY=0;entryDx=0;entryDy=0;" edge="1" parent="WIyWlLk6GJQsqaUBKTNV-1" source="L3R0zQ536273g6mOuvDP-23" target="L3R0zQ536273g6mOuvDP-15">
          <mxGeometry width="50" height="50" relative="1" as="geometry">
            <mxPoint x="140" y="630" as="sourcePoint" />
            <mxPoint x="190" y="580" as="targetPoint" />
            <Array as="points">
              <mxPoint x="430" y="710" />
              <mxPoint x="220" y="710" />
            </Array>
          </mxGeometry>
        </mxCell>
        <mxCell id="L3R0zQ536273g6mOuvDP-27" value="Yes" style="text;html=1;align=center;verticalAlign=middle;whiteSpace=wrap;rounded=0;" vertex="1" parent="WIyWlLk6GJQsqaUBKTNV-1">
          <mxGeometry x="-140" y="430" width="30" height="10" as="geometry" />
        </mxCell>
        <mxCell id="L3R0zQ536273g6mOuvDP-30" value="Yes" style="text;html=1;align=center;verticalAlign=middle;whiteSpace=wrap;rounded=0;" vertex="1" parent="WIyWlLk6GJQsqaUBKTNV-1">
          <mxGeometry x="430" y="420" width="30" height="10" as="geometry" />
        </mxCell>
        <mxCell id="L3R0zQ536273g6mOuvDP-32" value="No" style="text;html=1;align=center;verticalAlign=middle;whiteSpace=wrap;rounded=0;" vertex="1" parent="WIyWlLk6GJQsqaUBKTNV-1">
          <mxGeometry x="100" y="430" width="30" height="10" as="geometry" />
        </mxCell>
        <mxCell id="L3R0zQ536273g6mOuvDP-35" value="No" style="text;html=1;align=center;verticalAlign=middle;whiteSpace=wrap;rounded=0;" vertex="1" parent="WIyWlLk6GJQsqaUBKTNV-1">
          <mxGeometry x="660" y="420" width="30" height="10" as="geometry" />
        </mxCell>
      </root>
    </mxGraphModel>
  </diagram>
</mxfile>
